:version 1.10
:name ASF
:units
  mass 1
  length 1
  angle deg
:documentation
  ASF file generated by Kaydara
:root
  axis xyz
  order  tx ty tz rx ry rz
  position 0 0 0
  orientation 0 0 0
:bonedata
  begin
    id 1
    name SpineDummy
    direction 0.999998 -0.00179978 1.38929e-006
    length 3.60008
    axis 0 0 0 xyz
  end
  begin
    id 2
    name Spine
    direction 0.964365 0.262802 0.0305839
    length 8.13928
    axis 1.33928 -1.75354 15.2838 xyz
    dof rx ry rz
  end
  begin
    id 3
    name Spine1
    direction 0.811168 0.572065 0.12144
    length 7.14954
    axis 2.2224 -6.9761 35.2157 xyz
    dof rx ry rz
  end
  begin
    id 4
    name Neck
    direction 0 0 0
    length 0
    axis 2.2224 -6.9761 35.2157 xyz
    dof rx ry rz
  end
  begin
    id 5
    name HeadDummy
    direction 0.810939 0.572387 0.121455
    length 3.55534
    axis 2.2224 -6.9761 35.2157 xyz
  end
  begin
    id 6
    name Head
    direction 0.998226 -0.000232542 0.0595419
    length 7.35666
    axis -3.03688 -3.41352 -0.0133467 xyz
    dof rx ry rz
  end
  begin
    id 7
    name R_ClavicleDummy
    direction 0.531669 -0.194489 -0.824319
    length 2.49392
    axis 2.2224 -6.9761 35.2157 xyz
  end
  begin
    id 8
    name R_Clavicle
    direction -0.155119 0.0480802 -0.986725
    length 4.485
    axis -54.2764 80.6538 162.779 xyz
    dof rx ry rz
  end
  begin
    id 9
    name R_UpperArm
    direction -0.955567 0.200068 -0.216484
    length 10.1122
    axis -72.9943 12.5026 168.175 xyz
    dof rx ry rz
  end
  begin
    id 10
    name R_Forearm
    direction -0.61433 0.385743 0.688332
    length 9.39148
    axis -117.015 -43.4982 147.875 xyz
    dof rx ry rz
  end
  begin
    id 11
    name R_Hand
    direction -0.699429 0.0170333 0.714499
    length 3.66324
    axis -45.0303 -36.7097 175.478 xyz
    dof rx ry rz
  end
  begin
    id 12
    name L_ClavicleDummy
    direction 0.40287 -0.36502 0.839319
    length 2.49392
    axis 2.2224 -6.9761 35.2157 xyz
  end
  begin
    id 13
    name L_Clavicle
    direction -0.231271 -0.0726419 0.970174
    length 4.485
    axis 18.4357 -75.9711 -162.563 xyz
    dof rx ry rz
  end
  begin
    id 14
    name L_UpperArm
    direction -0.917494 0.144359 0.370629
    length 10.1122
    axis 56.0417 -21.7544 171.058 xyz
    dof rx ry rz
  end
  begin
    id 15
    name L_Forearm
    direction -0.496786 0.615074 -0.612281
    length 9.39148
    axis 89.8094 37.7546 128.927 xyz
    dof rx ry rz
  end
  begin
    id 16
    name L_Hand
    direction -0.409932 0.64962 -0.640274
    length 3.66324
    axis -0.424369 32.133 128.52 xyz
    dof rx ry rz
  end
  begin
    id 17
    name L_ThighDummy
    direction -1.84081e-006 1.87549e-006 1
    length 3.13049
    axis 0 0 0 xyz
  end
  begin
    id 18
    name L_Thigh
    direction -0.947739 0.307978 0.083308
    length 17.9961
    axis 173.219 -4.77873 161.998 xyz
    dof rx ry rz
  end
  begin
    id 19
    name L_Calf
    direction -0.728814 -0.684427 0.0197583
    length 13.3367
    axis 167.331 -1.13214 -136.799 xyz
    dof rx ry rz
  end
  begin
    id 20
    name L_Foot
    direction -0.9028 0.418719 0.0981191
    length 5.8674
    axis 163.436 11.5135 -155.37 xyz
    dof rx ry rz
  end
  begin
    id 21
    name L_Toe0
    direction -0.35341 0.886259 0.299411
    length 4.75286
    axis 169.316 -17.4222 111.74 xyz
    dof rx ry rz
  end
  begin
    id 22
    name R_ThighDummy
    direction 9.32778e-007 -8.82053e-007 -1
    length 3.13049
    axis 0 0 0 xyz
  end
  begin
    id 23
    name R_Thigh
    direction -0.925064 0.37528 -0.0585023
    length 17.9961
    axis -178.698 3.35385 157.919 xyz
    dof rx ry rz
  end
  begin
    id 24
    name R_Calf
    direction -0.68969 -0.718776 -0.0876886
    length 13.3367
    axis -160.504 5.03065 -133.817 xyz
    dof rx ry rz
  end
  begin
    id 25
    name R_Foot
    direction -0.857405 0.418858 -0.299022
    length 5.8674
    axis -161.328 4.38911 -154.413 xyz
    dof rx ry rz
  end
  begin
    id 26
    name R_Toe0
    direction -0.100745 0.952789 -0.286433
    length 4.75286
    axis 171.683 16.6445 96.0359 xyz
    dof rx ry rz
  end
:hierarchy
  begin
    root SpineDummy L_ThighDummy R_ThighDummy
    SpineDummy Spine
    Spine Spine1
    Spine1 Neck
    Neck HeadDummy R_ClavicleDummy L_ClavicleDummy
    HeadDummy Head
    R_ClavicleDummy R_Clavicle
    R_Clavicle R_UpperArm
    R_UpperArm R_Forearm
    R_Forearm R_Hand
    L_ClavicleDummy L_Clavicle
    L_Clavicle L_UpperArm
    L_UpperArm L_Forearm
    L_Forearm L_Hand
    L_ThighDummy L_Thigh
    L_Thigh L_Calf
    L_Calf L_Foot
    L_Foot L_Toe0
    R_ThighDummy R_Thigh
    R_Thigh R_Calf
    R_Calf R_Foot
    R_Foot R_Toe0
  end

:SAMPLES-PER-SECOND 30
:FULLY-SPECIFIED
:DEGREES
127
root  9.5482 28.4859 22.5551 -49.1731 14.0838 99.3577
Spine  1.98802 4.20491 1.60409
Spine1  2.13499 -9.82283 -12.8055
Neck  3.97569e-016 0 -2.38542e-015
Head  -31.8081 -3.13445 -0.289331
R_Clavicle  -0.100573 -6.83498 -1.63088
R_UpperArm  9.99734 -0.372802 1.32757
R_Forearm  8.47099 3.58565 -3.01559
R_Hand  -0.771523 3.54665 -15.4845
L_Clavicle  -0.315148 12.5476 -1.1807
L_UpperArm  -11.1828 10.51 26.4293
L_Forearm  -15.1062 9.78618 11.4877
L_Hand  -0.56141 4.40918 -6.26756
L_Thigh  22.2635 12.7689 -0.915056
L_Calf  -11.0249 -0.118301 0.447645
L_Foot  0.837424 4.46626 -1.54512
L_Toe0  -11.8948 2.10454 1.26403
R_Thigh  6.83858 -16.986 11.0117
R_Calf  6.618 -5.09911 -15.9994
R_Foot  -1.2618 -0.080359 10.1761
R_Toe0  0.258196 -0.454892 -16.2158
128
root  9.82447 28.3212 20.9627 -57.5294 10.6106 100.259
Spine  4.15655 10.5594 3.89664
Spine1  3.57375 -11.6643 -11.4402
Neck  3.97569e-016 0 -2.38542e-015
Head  -26.3413 -1.82993 -1.85999
R_Clavicle  -0.0320222 -5.79719 -0.935801
R_UpperArm  8.66378 4.90072 -3.09372
R_Forearm  10.8291 5.67664 -4.76885
R_Hand  -0.770897 4.34646 -15.887
L_Clavicle  -0.373178 14.2843 -1.88744
L_UpperArm  -7.58144 12.256 32.5373
L_Forearm  -16.0165 15.3291 18.4608
L_Hand  -0.505899 4.56131 -5.53451
L_Thigh  26.4843 9.95663 -3.24716
L_Calf  -5.15709 2.77816 -21.218
L_Foot  3.64148 9.52317 4.50812
L_Toe0  1.56159 -0.138127 -6.76544
R_Thigh  6.45693 -9.94546 10.4616
R_Calf  -0.683067 -3.12865 -9.62567
R_Foot  0.706868 4.57676 9.32637
R_Toe0  9.23015 -1.43686 -10.1162
129
root  10.0955 27.7428 19.1874 -64.4231 6.71282 100.51
Spine  6.28368 15.5168 7.41949
Spine1  4.65216 -12.9833 -9.66516
Neck  3.97569e-016 0 -2.38542e-015
Head  -21.5597 -1.45562 -2.76829
R_Clavicle  0.118332 -4.73946 0.205632
R_UpperArm  7.60078 11.1896 -9.20144
R_Forearm  16.5005 4.40836 -3.70323
R_Hand  -0.849509 5.21919 -16.9879
L_Clavicle  -0.455985 16.0543 -2.47433
L_UpperArm  -1.93647 14.0454 38.2201
L_Forearm  -15.9797 18.985 23.4223
L_Hand  -0.492873 4.06926 -5.67803
L_Thigh  22.8926 7.43484 -4.49282
L_Calf  -7.62956 5.42475 -44.24
L_Foot  6.07217 10.4142 11.7766
L_Toe0  0.505156 0.034446 -6.1361
R_Thigh  3.4244 -3.43697 3.94092
R_Calf  -3.58653 -1.79145 -5.32024
R_Foot  4.58259 14.1292 17.1663
R_Toe0  6.92442 -1.50006 -7.53474
130
root  10.39 27.0288 17.2178 -68.9724 4.62211 100.622
Spine  7.71067 18.8416 9.06093
Spine1  5.17126 -14.2337 -8.34737
Neck  3.97569e-016 0 -2.38542e-015
Head  -18.2238 -1.85808 -3.0193
R_Clavicle  0.325822 -3.53033 1.57285
R_UpperArm  7.95332 15.9318 -15.3723
R_Forearm  18.0996 -0.163696 0.107042
R_Hand  -0.865524 5.75768 -17.304
L_Clavicle  -0.514505 17.2901 -2.06308
L_UpperArm  1.81314 16.0331 44.122
L_Forearm  -15.4753 19.268 23.8216
L_Hand  -0.49194 4.19294 -5.58511
L_Thigh  15.8122 4.17753 -2.30101
L_Calf  -15.9751 6.96675 -63.2612
L_Foot  6.02699 6.83534 16.0281
L_Toe0  0.505156 0.034446 -6.1361
R_Thigh  0.322781 0.433166 -4.11267
R_Calf  -3.32695 -0.427246 -1.04317
R_Foot  8.00846 19.4183 28.8448
R_Toe0  -0.367468 -0.19165 -11.3973
131
root  10.6104 26.5374 14.9553 -71.2848 4.29417 100.62
Spine  8.8489 20.9096 8.32529
Spine1  5.65862 -15.2069 -7.10701
Neck  3.97569e-016 0 -2.38542e-015
Head  -17.1718 -2.90399 -3.13086
R_Clavicle  0.512423 -2.36183 2.65935
R_UpperArm  11.4616 18.3266 -17.399
R_Forearm  16.5928 -6.19502 5.14737
R_Hand  -0.784005 6.35817 -16.7655
L_Clavicle  -0.481517 16.7594 -1.00776
L_UpperArm  0.929536 18.6568 47.6792
L_Forearm  -14.23 17.0559 20.7573
L_Hand  -0.497713 4.95192 -5.23102
L_Thigh  8.01284 -1.11827 3.96787
L_Calf  -18.8618 7.48445 -73.507
L_Foot  6.0928 3.07311 21.8331
L_Toe0  0.505156 0.034446 -6.1361
R_Thigh  -0.50911 2.08206 -11.2622
R_Calf  -2.54739 1.10895 3.68866
R_Foot  8.66436 19.2381 36.7009
R_Toe0  -1.80074 -0.221418 -16.2743
132
root  10.6057 26.5518 12.2649 -71.3224 4.16582 100.343
Spine  9.61953 21.333 6.16169
Spine1  6.15495 -14.4799 -5.62811
Neck  3.97569e-016 0 -2.38542e-015
Head  -17.7763 -4.34833 -2.35476
R_Clavicle  0.557375 -2.53273 2.92261
R_UpperArm  16.2367 18.3238 -12.2802
R_Forearm  17.9879 -12.271 10.3966
R_Hand  -0.714793 6.84818 -16.341
L_Clavicle  -0.429313 15.3105 -0.551608
L_UpperArm  -2.12686 21.0321 47.2124
L_Forearm  -14.2095 13.6705 16.3134
L_Hand  -0.541697 4.97389 -5.6786
L_Thigh  1.6278 -7.41175 14.2411
L_Calf  -11.5866 7.40327 -71.732
L_Foot  6.97949 2.62021 26.1101
L_Toe0  0.505156 0.034446 -6.1361
R_Thigh  1.01208 2.80772 -18.5264
R_Calf  -3.18213 2.72957 8.69665
R_Foot  7.26086 17.2991 36.3625
R_Toe0  -1.46932 -0.17957 -14.1202
133
root  10.3747 26.9688 9.34674 -69.1275 3.85086 99.4693
Spine  9.37733 19.4936 3.60764
Spine1  6.12118 -11.7504 -4.92496
Neck  3.97569e-016 0 -2.38542e-015
Head  -18.7082 -5.53643 0.0543956
R_Clavicle  0.449075 -5.11015 2.32682
R_UpperArm  16.5096 15.7199 -1.70699
R_Forearm  23.4417 -18.3429 16.1018
R_Hand  -0.72639 6.60986 -16.3573
L_Clavicle  -0.398926 14.6619 -1.19105
L_UpperArm  -5.11421 21.2188 43.3994
L_Forearm  -14.9882 9.734 11.4204
L_Hand  -0.688735 4.7017 -7.49441
L_Thigh  -4.09238 -11.9033 25.2025
L_Calf  -3.31287 6.70767 -59.4822
L_Foot  5.91949 1.16407 24.7242
L_Toe0  0.505156 0.034446 -6.1361
R_Thigh  3.91291 2.78259 -25.1245
R_Calf  -5.81051 3.81714 12.0847
R_Foot  5.23177 14.933 25.8536
R_Toe0  -0.262841 0.0107313 0.0502719
134
root  10.06 27.5193 6.60398 -66.1649 4.35605 97.1426
Spine  8.24365 15.0587 2.25994
Spine1  5.41254 -9.14555 -5.49493
Neck  3.97569e-016 0 -2.38542e-015
Head  -19.3849 -6.06541 2.31745
R_Clavicle  0.335801 -9.2474 1.41104
R_UpperArm  14.3961 11.3768 10.1339
R_Forearm  25.0311 -25.808 20.7096
R_Hand  -0.697749 6.28998 -15.989
L_Clavicle  -0.394779 14.7395 -1.85375
L_UpperArm  -8.20985 17.8635 36.5414
L_Forearm  -14.3258 4.86149 5.62563
L_Hand  -0.842126 5.36922 -8.58525
L_Thigh  -12.1398 -15.106 33.1622
L_Calf  -1.8678 5.11609 -41.159
L_Foot  5.34838 0.920919 22.9107
L_Toe0  0.505156 0.034446 -6.1361
R_Thigh  6.44981 0.712146 -27.6262
R_Calf  -9.94534 3.0861 9.68087
R_Foot  3.39868 11.6712 8.88768
R_Toe0  2.78459 -0.422408 13.6938
135
root  9.83519 27.8034 4.27605 -64.3613 5.18082 94.1991
Spine  7.3148 10.7398 3.24964
Spine1  4.65527 -8.84457 -5.8548
Neck  3.97569e-016 0 -2.38542e-015
Head  -20.0321 -6.26766 1.78226
R_Clavicle  0.281981 -13.486 0.396169
R_UpperArm  25.081 6.66343 20.9743
R_Forearm  11.2379 -37.3294 21.2524
R_Hand  -0.588722 6.95135 -15.3263
L_Clavicle  -0.39377 14.5712 -1.31681
L_UpperArm  -11.7825 11.1127 25.9624
L_Forearm  -12.0262 -0.64897 -0.764192
L_Hand  -0.818984 6.40842 -7.60648
L_Thigh  -22.0168 -16.3565 37.2342
L_Calf  0.813063 2.58518 -19.5295
L_Foot  5.58389 3.2757 19.5201
L_Toe0  0.505156 0.034446 -6.1361
R_Thigh  6.86808 -1.68023 -26.2285
R_Calf  -7.77778 -0.521885 -1.64892
R_Foot  2.13906 7.74199 2.05332
R_Toe0  4.89541 -1.31378 -9.73179
136
root  9.71492 27.522 1.94183 -64.1001 3.89332 92.6162
Spine  7.28895 9.45896 5.5161
Spine1  4.21861 -9.90741 -4.61158
Neck  3.97569e-016 0 -2.38542e-015
Head  -20.5946 -6.31879 -1.03021
R_Clavicle  0.287939 -17.497 -0.918766
R_UpperArm  33.2094 2.3451 30.9583
R_Forearm  -3.73189 -46.0413 26.04
R_Hand  -0.584694 8.17606 -15.769
L_Clavicle  -0.408593 14.3742 0.206815
L_UpperArm  -14.8084 1.90106 12.3528
L_Forearm  -10.3996 -4.52261 -5.25646
L_Hand  -0.762274 6.80584 -6.84074
L_Thigh  -29.9865 -15.2881 35.9471
L_Calf  4.98365 -0.0588304 0.313635
L_Foot  3.70151 4.88649 10.0877
L_Toe0  0.505156 0.034446 -6.1361
R_Thigh  5.47044 -1.40683 -24.805
R_Calf  -0.595897 -6.1453 -19.5147
R_Foot  1.6589 6.42777 4.16935
R_Toe0  -2.34609 -0.18917 -18.1312
137
root  9.49466 26.8211 -0.780467 -63.7348 0.176879 91.8289
Spine  6.92807 9.44131 7.42868
Spine1  3.31961 -9.62265 -2.1916
Neck  3.97569e-016 0 -2.38542e-015
Head  -20.0797 -5.5192 -2.85288
R_Clavicle  0.379395 -21.1413 -2.18622
R_UpperArm  34.4394 -1.7204 40.5316
R_Forearm  -12.2392 -50.5521 32.5853
R_Hand  -0.729231 9.47042 -17.1893
L_Clavicle  -0.428773 14.2173 1.78759
L_UpperArm  -16.3174 -8.29284 -1.85246
L_Forearm  -10.4008 -4.86053 -5.65002
L_Hand  -0.877389 6.24522 -8.26143
L_Thigh  -32.3638 -14.7401 31.8794
L_Calf  3.66348 -1.36182 9.92439
L_Foot  4.34857 15.2151 1.92261
L_Toe0  0.505156 0.034446 -6.1361
R_Thigh  4.81419 0.427905 -26.4796
R_Calf  5.10476 -11.6098 -39.5134
R_Foot  2.22081 8.66691 9.2021
R_Toe0  -1.78852 -0.272788 -17.3235
138
root  9.08675 25.8976 -3.56672 -61.6963 -3.80947 89.7137
Spine  4.42408 7.39135 8.64152
Spine1  1.12934 -6.90258 0.0287717
Neck  3.97569e-016 0 -2.38542e-015
Head  -17.5819 -3.56323 -2.45848
R_Clavicle  0.463572 -23.1353 -2.5307
R_UpperArm  35.5353 -6.05327 49.3618
R_Forearm  -17.5184 -51.629 36.5542
R_Hand  -0.830631 10.4727 -18.0764
L_Clavicle  -0.443842 12.1143 2.99256
L_UpperArm  -17.4613 -17.4124 -14.3391
L_Forearm  -9.96059 -1.32073 -1.53818
L_Hand  -1.02072 5.13856 -10.6786
L_Thigh  -28.8271 -17.2278 28.8496
L_Calf  -4.56635 -0.828593 6.03766
L_Foot  11.3258 35.4918 5.37645
L_Toe0  0.505156 0.034446 -6.1361
R_Thigh  6.39287 -0.0478791 -30.1826
R_Calf  8.01021 -15.5445 -59.4144
R_Foot  2.26346 9.28905 15.4172
R_Toe0  -1.78829 -0.272795 -17.3237
